999
DXF created by Inkscape
  0
SECTION
  2
HEADER
  9
$ACADVER
  1
AC1014
  9
$HANDSEED
  5
FFFF
  9
$MEASUREMENT
 70
     1
  0
ENDSEC
  0
SECTION
  2
TABLES
  0
TABLE
  2
VPORT
  5
8
330
0
100
AcDbSymbolTable
 70
     4
  0
VPORT
  5
2E
330
8
100
AcDbSymbolTableRecord
100
AcDbViewportTableRecord
  2
*ACTIVE
 70
     0
 10
0.0
 20
0.0
 11
1.0
 21
1.0
 12
210.0
 22
148.5
 13
0.0
 23
0.0
 14
10.0
 24
10.0
 15
10.0
 25
10.0
 16
0.0
 26
0.0
 36
1.0
 17
0.0
 27
0.0
 37
0.0
 40
341.0
 41
1.24
 42
50.0
 43
0.0
 44
0.0
 50
0.0
 51
0.0
 71
     0
 72
   100
 73
     1
 74
     3
 75
     0
 76
     0
 77
     0
 78
     0
  0
ENDTAB
  0
TABLE
  2
LTYPE
  5
5
330
0
100
AcDbSymbolTable
 70
     1
  0
LTYPE
  5
14
330
5
100
AcDbSymbolTableRecord
100
AcDbLinetypeTableRecord
  2
BYBLOCK
 70
     0
  3

 72
    65
 73
     0
 40
0.0
  0
LTYPE
  5
15
330
5
100
AcDbSymbolTableRecord
100
AcDbLinetypeTableRecord
  2
BYLAYER
 70
     0
  3

 72
    65
 73
     0
 40
0.0
  0
LTYPE
  5
16
330
5
100
AcDbSymbolTableRecord
100
AcDbLinetypeTableRecord
  2
CONTINUOUS
 70
     0
  3
Solid line
 72
    65
 73
     0
 40
0.0
  0
ENDTAB
  0
TABLE
  2
LAYER
  5
2
100
AcDbSymbolTable
 70
1
  0
LAYER
  5
50
100
AcDbSymbolTableRecord
100
AcDbLayerTableRecord
  2
0
 70
0
  6
CONTINUOUS
  0
ENDTAB
  0
TABLE
  2
STYLE
  5
3
330
0
100
AcDbSymbolTable
 70
     1
  0
STYLE
  5
11
330
3
100
AcDbSymbolTableRecord
100
AcDbTextStyleTableRecord
  2
STANDARD
 70
     0
 40
0.0
 41
1.0
 50
0.0
 71
     0
 42
2.5
  3
txt
  4

  0
ENDTAB
  0
TABLE
  2
VIEW
  5
6
330
0
100
AcDbSymbolTable
 70
     0
  0
ENDTAB
  0
TABLE
  2
UCS
  5
7
330
0
100
AcDbSymbolTable
 70
     0
  0
ENDTAB
  0
TABLE
  2
APPID
  5
9
330
0
100
AcDbSymbolTable
 70
     2
  0
APPID
  5
12
330
9
100
AcDbSymbolTableRecord
100
AcDbRegAppTableRecord
  2
ACAD
 70
     0
  0
ENDTAB
  0
TABLE
  2
DIMSTYLE
  5
A
330
0
100
AcDbSymbolTable
 70
     1
  0
DIMSTYLE
105
27
330
A
100
AcDbSymbolTableRecord
100
AcDbDimStyleTableRecord
  2
ISO-25
 70
     0
  3

  4

  5

  6

  7

 40
1.0
 41
2.5
 42
0.625
 43
3.75
 44
1.25
 45
0.0
 46
0.0
 47
0.0
 48
0.0
140
2.5
141
2.5
142
0.0
143
0.03937007874016
144
1.0
145
0.0
146
1.0
147
0.625
 71
     0
 72
     0
 73
     0
 74
     0
 75
     0
 76
     0
 77
     1
 78
     8
170
     0
171
     3
172
     1
173
     0
174
     0
175
     0
176
     0
177
     0
178
     0
270
     2
271
     2
272
     2
273
     2
274
     3
340
11
275
     0
280
     0
281
     0
282
     0
283
     0
284
     8
285
     0
286
     0
287
     3
288
     0
  0
ENDTAB
  0
TABLE
  2
BLOCK_RECORD
  5
1
330
0
100
AcDbSymbolTable
 70
     1
  0
BLOCK_RECORD
  5
1F
330
1
100
AcDbSymbolTableRecord
100
AcDbBlockTableRecord
  2
*MODEL_SPACE
  0
BLOCK_RECORD
  5
1B
330
1
100
AcDbSymbolTableRecord
100
AcDbBlockTableRecord
  2
*PAPER_SPACE
  0
ENDTAB
  0
ENDSEC
  0
SECTION
  2
BLOCKS
  0
BLOCK
  5
20
330
1F
100
AcDbEntity
  8
0
100
AcDbBlockBegin
  2
*MODEL_SPACE
 70
     0
 10
0.0
 20
0.0
 30
0.0
  3
*MODEL_SPACE
  1

  0
ENDBLK
  5
21
330
1F
100
AcDbEntity
  8
0
100
AcDbBlockEnd
  0
BLOCK
  5
1C
330
1B
100
AcDbEntity
 67
     1
  8
0
100
AcDbBlockBegin
  2
*PAPER_SPACE
  1

  0
ENDBLK
  5
1D
330
1B
100
AcDbEntity
 67
     1
  8
0
100
AcDbBlockEnd
  0
ENDSEC
  0
SECTION
  2
ENTITIES
  0
SPLINE
  5
100
100
AcDbEntity
  8
0
 62
7
100
AcDbSpline
 70
0
 71
3
 72
22
 73
18
 74
16
 40
0.000000
 40
0.000000
 40
0.000000
 40
0.000000
 40
0.171859
 40
0.523086
 40
1.014895
 40
2.281906
 40
3.279226
 40
4.244856
 40
5.187161
 40
5.929142
 40
7.379037
 40
9.540027
 40
11.691344
 40
13.246743
 40
14.665224
 40
15.793075
 40
17.270053
 40
17.270053
 40
17.270053
 40
17.270053
 10
40.628626
 20
51.925268
 30
0.0
 10
40.586429
 20
51.966391
 30
0.0
 10
40.457995
 20
52.091557
 30
0.0
 10
40.088888
 20
52.067490
 30
0.0
 10
39.407776
 20
52.004374
 30
0.0
 10
38.481310
 20
51.887325
 30
0.0
 10
37.392176
 20
52.234828
 30
0.0
 10
36.820481
 20
53.033973
 30
0.0
 10
36.341698
 20
53.846824
 30
0.0
 10
36.697045
 20
54.909769
 30
0.0
 10
37.744536
 20
55.924720
 30
0.0
 10
38.799809
 20
57.543627
 30
0.0
 10
39.725807
 20
59.269384
 30
0.0
 10
40.266428
 20
60.903609
 30
0.0
 10
40.253395
 20
62.316121
 30
0.0
 10
39.568889
 20
63.541086
 30
0.0
 10
38.797514
 20
63.973689
 30
0.0
 10
38.360133
 20
64.218981
 30
0.0
 11
40.628626
 21
51.925268
 31
0.0
 11
40.495364
 21
52.033787
 31
0.0
 11
40.146000
 21
52.069917
 31
0.0
 11
39.656171
 21
52.025835
 31
0.0
 11
38.389909
 21
51.982255
 31
0.0
 11
37.452641
 21
52.323102
 31
0.0
 11
36.823760
 21
53.055870
 31
0.0
 11
36.460527
 21
53.925354
 31
0.0
 11
36.648749
 21
54.643064
 31
0.0
 11
37.539936
 21
55.786734
 31
0.0
 11
38.774156
 21
57.560594
 31
0.0
 11
39.754512
 21
59.475553
 31
0.0
 11
40.192475
 21
60.968018
 31
0.0
 11
40.120543
 21
62.384674
 31
0.0
 11
39.566758
 21
63.367207
 31
0.0
 11
38.360133
 21
64.218981
 31
0.0
  0
LWPOLYLINE
  5
101
100
AcDbEntity
  8
0
 62
7
100
AcDbPolyline
 90
3
 70
0
 10
38.360133
 20
64.218981
 30
0.0
 10
36.818626
 20
65.079409
 30
0.0
 10
36.600528
 20
67.327602
 30
0.0
  0
SPLINE
  5
102
100
AcDbEntity
  8
0
 62
7
100
AcDbSpline
 70
0
 71
3
 72
121
 73
117
 74
115
 40
0.000000
 40
0.000000
 40
0.000000
 40
0.000000
 40
1.377000
 40
2.819715
 40
4.020711
 40
5.170144
 40
6.038040
 40
6.834630
 40
7.603880
 40
8.576290
 40
9.548133
 40
10.450115
 40
11.235631
 40
11.751750
 40
12.130228
 40
12.478001
 40
12.824836
 40
13.477340
 40
14.424640
 40
15.912812
 40
16.582850
 40
17.166585
 40
17.553554
 40
18.058268
 40
18.935386
 40
20.000639
 40
21.111443
 40
22.108832
 40
22.782726
 40
23.221142
 40
23.592162
 40
23.823077
 40
24.021139
 40
24.306926
 40
24.629453
 40
24.908754
 40
25.333780
 40
26.417339
 40
27.339522
 40
28.033534
 40
28.354477
 40
28.615217
 40
29.127007
 40
29.782522
 40
30.464140
 40
31.047501
 40
31.415859
 40
31.857682
 40
32.652453
 40
33.639557
 40
34.946753
 40
36.257756
 40
37.812417
 40
40.457430
 40
41.922510
 40
43.576011
 40
44.638673
 40
45.544126
 40
46.238675
 40
46.757371
 40
47.225375
 40
47.565418
 40
48.232513
 40
49.000100
 40
49.663890
 40
49.949986
 40
50.201648
 40
50.532487
 40
50.879829
 40
51.246611
 40
51.581073
 40
52.011408
 40
52.606931
 40
53.240619
 40
54.053523
 40
54.742619
 40
55.915979
 40
57.691617
 40
58.474782
 40
59.217473
 40
60.247648
 40
61.433279
 40
63.325885
 40
65.266080
 40
65.680734
 40
67.974010
 40
69.344840
 40
70.239759
 40
71.518142
 40
72.051977
 40
72.394507
 40
72.950109
 40
80.837495
 40
87.160805
 40
90.737644
 40
92.290398
 40
92.493243
 40
93.510908
 40
94.399442
 40
95.222611
 40
95.802708
 40
97.250726
 40
100.352904
 40
104.438169
 40
108.972248
 40
111.648338
 40
112.649629
 40
113.000678
 40
113.513204
 40
114.085278
 40
114.817601
 40
115.304083
 40
116.308004
 40
117.704317
 40
117.982357
 40
119.390195
 40
119.390195
 40
119.390195
 40
119.390195
 10
36.600528
 20
67.327602
 30
0.0
 10
36.543755
 20
67.783162
 30
0.0
 10
36.427499
 20
68.716021
 30
0.0
 10
36.172020
 20
70.033024
 30
0.0
 10
35.845967
 20
71.255759
 30
0.0
 10
35.517959
 20
72.276147
 30
0.0
 10
35.385241
 20
73.217733
 30
0.0
 10
35.530999
 20
74.021461
 30
0.0
 10
35.656107
 20
74.857585
 30
0.0
 10
35.681721
 20
75.764596
 30
0.0
 10
35.628609
 20
76.711793
 30
0.0
 10
35.578265
 20
77.596855
 30
0.0
 10
35.610508
 20
78.333642
 30
0.0
 10
35.740451
 20
78.882780
 30
0.0
 10
35.923588
 20
79.257300
 30
0.0
 10
35.936743
 20
79.631306
 30
0.0
 10
35.740271
 20
80.038115
 30
0.0
 10
35.620303
 20
80.710119
 30
0.0
 10
36.176412
 20
81.644049
 30
0.0
 10
36.834124
 20
82.421013
 30
0.0
 10
37.398091
 20
83.140936
 30
0.0
 10
37.694043
 20
83.608788
 30
0.0
 10
37.819918
 20
84.087262
 30
0.0
 10
37.936670
 20
84.665385
 30
0.0
 10
38.251716
 20
85.422701
 30
0.0
 10
38.665910
 20
86.350484
 30
0.0
 10
39.098039
 20
87.316829
 30
0.0
 10
39.421608
 20
88.186572
 30
0.0
 10
39.599325
 20
88.869776
 30
0.0
 10
39.660577
 20
89.359611
 30
0.0
 10
39.740643
 20
89.701116
 30
0.0
 10
39.870035
 20
89.935267
 30
0.0
 10
39.996003
 20
90.139083
 30
0.0
 10
40.036374
 20
90.415378
 30
0.0
 10
40.082323
 20
90.682252
 30
0.0
 10
39.969059
 20
91.131765
 30
0.0
 10
39.351313
 20
90.505422
 30
0.0
 10
38.919522
 20
90.036211
 30
0.0
 10
38.278502
 20
89.336549
 30
0.0
 10
37.831285
 20
88.884929
 30
0.0
 10
37.490857
 20
88.618563
 30
0.0
 10
37.138036
 20
88.512531
 30
0.0
 10
36.737608
 20
88.248033
 30
0.0
 10
36.221142
 20
87.913639
 30
0.0
 10
35.678116
 20
87.577537
 30
0.0
 10
35.195671
 20
87.311737
 30
0.0
 10
34.737753
 20
87.219894
 30
0.0
 10
34.238616
 20
87.017798
 30
0.0
 10
33.628385
 20
86.590133
 30
0.0
 10
32.804638
 20
85.974332
 30
0.0
 10
31.921565
 20
85.150620
 30
0.0
 10
31.089101
 20
84.026334
 30
0.0
 10
30.265779
 20
82.379253
 30
0.0
 10
29.363218
 20
80.730549
 30
0.0
 10
29.086896
 20
78.709045
 30
0.0
 10
29.988081
 20
77.533743
 30
0.0
 10
30.729729
 20
76.601261
 30
0.0
 10
31.382063
 20
75.982337
 30
0.0
 10
32.007003
 20
75.645297
 30
0.0
 10
32.534949
 20
75.446435
 30
0.0
 10
32.896647
 20
75.194690
 30
0.0
 10
33.248230
 20
74.811939
 30
0.0
 10
33.073104
 20
74.146689
 30
0.0
 10
32.590220
 20
73.617889
 30
0.0
 10
31.993927
 20
73.476877
 30
0.0
 10
31.588620
 20
73.598312
 30
0.0
 10
31.325030
 20
73.409110
 30
0.0
 10
31.241623
 20
73.103913
 30
0.0
 10
31.101659
 20
72.784127
 30
0.0
 10
30.869005
 20
72.512430
 30
0.0
 10
30.540520
 20
72.320632
 30
0.0
 10
30.123576
 20
72.142881
 30
0.0
 10
29.648171
 20
71.855148
 30
0.0
 10
29.074771
 20
71.498025
 30
0.0
 10
28.487307
 20
71.054404
 30
0.0
 10
27.564665
 20
71.017725
 30
0.0
 10
26.377311
 20
71.340109
 30
0.0
 10
25.261623
 20
71.655784
 30
0.0
 10
23.958285
 20
71.666910
 30
0.0
 10
23.786583
 20
70.696195
 30
0.0
 10
23.439077
 20
69.775238
 30
0.0
 10
22.047522
 20
69.105689
 30
0.0
 10
20.825420
 20
69.067016
 30
0.0
 10
18.188535
 20
68.157928
 30
0.0
 10
19.107570
 20
69.763428
 30
0.0
 10
20.674354
 20
69.597355
 30
0.0
 10
22.175264
 20
69.955121
 30
0.0
 10
22.995663
 20
70.961093
 30
0.0
 10
22.794694
 20
71.888399
 30
0.0
 10
22.779741
 20
72.647546
 30
0.0
 10
22.360879
 20
72.970195
 30
0.0
 10
19.334758
 20
72.484763
 30
0.0
 10
14.532649
 20
72.414931
 30
0.0
 10
8.639839
 20
71.804584
 30
0.0
 10
4.725144
 20
71.854138
 30
0.0
 10
3.073082
 20
71.601533
 30
0.0
 10
2.023915
 20
71.941917
 30
0.0
 10
3.548632
 20
71.964411
 30
0.0
 10
4.182026
 20
72.124287
 30
0.0
 10
4.995332
 20
72.241383
 30
0.0
 10
5.909014
 20
72.452877
 30
0.0
 10
7.620317
 20
72.641696
 30
0.0
 10
10.476880
 20
72.979993
 30
0.0
 10
14.330436
 20
73.407330
 30
0.0
 10
18.207768
 20
73.714565
 30
0.0
 10
20.656160
 20
74.259944
 30
0.0
 10
22.289918
 20
74.309319
 30
0.0
 10
22.459905
 20
74.952378
 30
0.0
 10
22.544846
 20
75.417483
 30
0.0
 10
22.547889
 20
76.011020
 30
0.0
 10
22.654123
 20
76.675969
 30
0.0
 10
21.988136
 20
77.163528
 30
0.0
 10
21.138815
 20
77.251535
 30
0.0
 10
19.721573
 20
77.053696
 30
0.0
 10
19.848295
 20
78.238159
 30
0.0
 10
20.597450
 20
78.054620
 30
0.0
 10
21.223052
 20
77.901351
 30
0.0
 11
36.600528
 21
67.327602
 31
0.0
 11
36.415205
 21
68.692075
 31
0.0
 11
36.139011
 21
70.108105
 31
0.0
 11
35.831740
 21
71.269129
 31
0.0
 11
35.525125
 21
72.376912
 31
0.0
 11
35.430325
 21
73.239615
 31
0.0
 11
35.528340
 21
74.030151
 31
0.0
 11
35.632555
 21
74.792310
 31
0.0
 11
35.668060
 21
75.764071
 31
0.0
 11
35.627169
 21
76.735054
 31
0.0
 11
35.592241
 21
77.636359
 31
0.0
 11
35.644177
 21
78.420156
 31
0.0
 11
35.771960
 21
78.920207
 31
0.0
 11
35.901458
 21
79.275842
 31
0.0
 11
35.909225
 21
79.623528
 31
0.0
 11
35.794990
 21
79.951010
 31
0.0
 11
35.702800
 21
80.596969
 31
0.0
 11
36.090688
 21
81.461215
 31
0.0
 11
37.001128
 21
82.638395
 31
0.0
 11
37.406781
 21
83.171683
 31
0.0
 11
37.696165
 21
83.678638
 31
0.0
 11
37.806630
 21
84.049506
 31
0.0
 11
37.923654
 21
84.540465
 31
0.0
 11
38.230234
 21
85.362259
 31
0.0
 11
38.659997
 21
86.336973
 31
0.0
 11
39.101856
 21
87.356114
 31
0.0
 11
39.440146
 21
88.294380
 31
0.0
 11
39.601628
 21
88.948641
 31
0.0
 11
39.671829
 21
89.381400
 31
0.0
 11
39.770814
 21
89.738972
 31
0.0
 11
39.877151
 21
89.943946
 31
0.0
 11
39.970313
 21
90.118729
 31
0.0
 11
40.034763
 21
90.397154
 31
0.0
 11
40.056548
 21
90.718945
 31
0.0
 11
39.959081
 21
90.980687
 31
0.0
 11
39.598951
 21
90.754959
 31
0.0
 11
38.855850
 21
89.966351
 31
0.0
 11
38.227784
 21
89.291108
 31
0.0
 11
37.728076
 21
88.809501
 31
0.0
 11
37.464910
 21
88.625796
 31
0.0
 11
37.222759
 21
88.529108
 31
0.0
 11
36.778149
 21
88.275631
 31
0.0
 11
36.227334
 21
87.920240
 31
0.0
 11
35.645698
 21
87.564849
 31
0.0
 11
35.120284
 21
87.311372
 31
0.0
 11
34.764842
 21
87.214685
 31
0.0
 11
34.354156
 21
87.051759
 31
0.0
 11
33.683915
 21
86.624632
 31
0.0
 11
32.899223
 21
86.025773
 31
0.0
 11
31.952155
 21
85.124760
 31
0.0
 11
31.167752
 21
84.074313
 31
0.0
 11
30.422971
 21
82.709662
 31
0.0
 11
29.364819
 21
80.285530
 31
0.0
 11
29.277273
 21
78.823069
 31
0.0
 11
30.104608
 21
77.391432
 31
0.0
 11
30.784994
 21
76.575146
 31
0.0
 11
31.459338
 21
75.970906
 31
0.0
 11
32.066450
 21
75.633543
 31
0.0
 11
32.539579
 21
75.420952
 31
0.0
 11
32.922239
 21
75.151511
 31
0.0
 11
33.131588
 21
74.883552
 31
0.0
 11
33.042251
 21
74.222465
 31
0.0
 11
32.518142
 21
73.661663
 31
0.0
 11
31.867373
 21
73.530833
 31
0.0
 11
31.582157
 21
73.553255
 31
0.0
 11
31.372300
 21
73.414353
 31
0.0
 11
31.235963
 21
73.112912
 31
0.0
 11
31.089407
 21
72.798003
 31
0.0
 11
30.848709
 21
72.521248
 31
0.0
 11
30.565979
 21
72.342561
 31
0.0
 11
30.177824
 21
72.156756
 31
0.0
 11
29.660743
 21
71.861333
 31
0.0
 11
29.126680
 21
71.520250
 31
0.0
 11
28.422544
 21
71.114042
 31
0.0
 11
27.736388
 21
71.050453
 31
0.0
 11
26.586680
 21
71.284857
 31
0.0
 11
24.846851
 21
71.639662
 31
0.0
 11
24.073991
 21
71.513034
 31
0.0
 11
23.790250
 21
70.826681
 31
0.0
 11
23.351370
 21
69.894669
 31
0.0
 11
22.330449
 21
69.291809
 31
0.0
 11
20.484409
 21
68.874561
 31
0.0
 11
18.549932
 21
68.725709
 31
0.0
 11
18.747962
 21
69.090020
 31
0.0
 11
20.949875
 21
69.730871
 31
0.0
 11
22.250881
 21
70.162796
 31
0.0
 11
22.794239
 21
70.873881
 31
0.0
 11
22.800110
 21
72.152250
 31
0.0
 11
22.685552
 21
72.673649
 31
0.0
 11
22.416420
 21
72.885533
 31
0.0
 11
21.860852
 21
72.891718
 31
0.0
 11
13.997377
 21
72.278022
 31
0.0
 11
7.687480
 21
71.866401
 31
0.0
 11
4.113093
 21
71.733955
 31
0.0
 11
2.560786
 21
71.771204
 31
0.0
 11
2.369299
 21
71.838129
 31
0.0
 11
3.375292
 21
71.991818
 31
0.0
 11
4.253839
 21
72.124665
 31
0.0
 11
5.064967
 21
72.264948
 31
0.0
 11
5.633070
 21
72.382298
 31
0.0
 11
7.067264
 21
72.581907
 31
0.0
 11
10.148954
 21
72.937841
 31
0.0
 11
14.210973
 21
73.373042
 31
0.0
 11
18.716967
 21
73.876919
 31
0.0
 11
21.364664
 21
74.265706
 31
0.0
 11
22.320538
 21
74.563848
 31
0.0
 11
22.440622
 21
74.893720
 31
0.0
 11
22.527399
 21
75.398846
 31
0.0
 11
22.562084
 21
75.969868
 31
0.0
 11
22.510763
 21
76.700390
 31
0.0
 11
22.144034
 21
77.020036
 31
0.0
 11
21.155609
 21
77.195753
 31
0.0
 11
19.793880
 21
77.504594
 31
0.0
 11
19.820336
 21
77.781372
 31
0.0
 11
21.223052
 21
77.901351
 31
0.0
  0
LWPOLYLINE
  5
103
100
AcDbEntity
  8
0
 62
7
100
AcDbPolyline
 90
3
 70
0
 10
21.223052
 20
77.901351
 30
0.0
 10
23.017458
 20
77.901351
 30
0.0
 10
23.403272
 20
78.959685
 30
0.0
  0
SPLINE
  5
104
100
AcDbEntity
  8
0
 62
7
100
AcDbSpline
 70
0
 71
3
 72
127
 73
123
 74
121
 40
0.000000
 40
0.000000
 40
0.000000
 40
0.000000
 40
2.078400
 40
5.122498
 40
7.803828
 40
8.639224
 40
9.721830
 40
10.817373
 40
12.083511
 40
12.879804
 40
13.667771
 40
14.789564
 40
15.425713
 40
16.200545
 40
17.222061
 40
19.485459
 40
24.358319
 40
26.368257
 40
28.664798
 40
30.753217
 40
32.714888
 40
34.677803
 40
36.218337
 40
37.816622
 40
39.010562
 40
40.909849
 40
45.055257
 40
48.404093
 40
50.231129
 40
50.778381
 40
51.310364
 40
52.140762
 40
53.536671
 40
54.963324
 40
56.294925
 40
56.792305
 40
57.504404
 40
58.327032
 40
61.134210
 40
63.622626
 40
66.690067
 40
68.429822
 40
69.495100
 40
70.678938
 40
71.643815
 40
72.649832
 40
73.490745
 40
75.412915
 40
77.679840
 40
79.201729
 40
79.673900
 40
80.385256
 40
81.188522
 40
81.961582
 40
82.553551
 40
82.885989
 40
83.414179
 40
84.458734
 40
85.797157
 40
88.171478
 40
89.279164
 40
90.108447
 40
90.933251
 40
91.584121
 40
93.047329
 40
93.994374
 40
94.879504
 40
95.512098
 40
97.259551
 40
99.280131
 40
101.005539
 40
103.322870
 40
105.906601
 40
108.090143
 40
109.112407
 40
110.324804
 40
111.466483
 40
112.523249
 40
113.512475
 40
114.221391
 40
114.843779
 40
115.609988
 40
116.359130
 40
119.448468
 40
123.206765
 40
125.809177
 40
126.548170
 40
127.177892
 40
127.576301
 40
127.838770
 40
128.087379
 40
128.662704
 40
129.389066
 40
130.265687
 40
131.852617
 40
133.674338
 40
134.017009
 40
135.984614
 40
136.971064
 40
137.759328
 40
138.187691
 40
139.237294
 40
140.457044
 40
141.198309
 40
141.792508
 40
143.131802
 40
144.927751
 40
148.007345
 40
152.712001
 40
158.023414
 40
162.878910
 40
166.388585
 40
167.794286
 40
167.921416
 40
168.046115
 40
168.175218
 40
171.255087
 40
179.619030
 40
192.391499
 40
194.655608
 40
195.804515
 40
197.002547
 40
197.002547
 40
197.002547
 40
197.002547
 10
23.403272
 20
78.959685
 30
0.0
 10
23.605639
 20
79.622343
 30
0.0
 10
24.104400
 20
81.255553
 30
0.0
 10
24.745075
 20
83.777610
 30
0.0
 10
25.244243
 20
85.906872
 30
0.0
 10
25.562440
 20
87.406688
 30
0.0
 10
25.790321
 20
88.384941
 30
0.0
 10
26.054424
 20
89.502727
 30
0.0
 10
26.318312
 20
90.520150
 30
0.0
 10
26.372068
 20
91.487192
 30
0.0
 10
26.050932
 20
92.344554
 30
0.0
 10
25.662116
 20
93.100349
 30
0.0
 10
25.755013
 20
94.034812
 30
0.0
 10
26.558325
 20
94.414391
 30
0.0
 10
27.679714
 20
95.109759
 30
0.0
 10
29.887498
 20
96.744560
 30
0.0
 10
32.310246
 20
98.572372
 30
0.0
 10
34.813310
 20
100.336345
 30
0.0
 10
36.602119
 20
101.496154
 30
0.0
 10
38.418870
 20
102.580854
 30
0.0
 10
40.154439
 20
103.582951
 30
0.0
 10
41.698721
 20
104.552282
 30
0.0
 10
43.124812
 20
105.471571
 30
0.0
 10
44.267358
 20
106.386526
 30
0.0
 10
45.801789
 20
106.818728
 30
0.0
 10
48.223676
 20
106.788101
 30
0.0
 10
51.350340
 20
106.952354
 30
0.0
 10
54.440034
 20
107.245171
 30
0.0
 10
56.351048
 20
107.375082
 30
0.0
 10
57.265697
 20
107.799784
 30
0.0
 10
57.565608
 20
108.400920
 30
0.0
 10
57.622978
 20
109.320588
 30
0.0
 10
57.995596
 20
110.494803
 30
0.0
 10
58.807760
 20
111.676251
 30
0.0
 10
59.788071
 20
112.178091
 30
0.0
 10
60.481266
 20
112.673975
 30
0.0
 10
60.873908
 20
113.240812
 30
0.0
 10
61.520789
 20
114.526704
 30
0.0
 10
62.473990
 20
116.399132
 30
0.0
 10
65.010320
 20
117.869834
 30
0.0
 10
67.478887
 20
117.977073
 30
0.0
 10
69.431195
 20
118.004342
 30
0.0
 10
70.758321
 20
117.739973
 30
0.0
 10
71.658106
 20
117.128365
 30
0.0
 10
72.488775
 20
116.486459
 30
0.0
 10
73.158034
 20
115.828385
 30
0.0
 10
73.974702
 20
114.861408
 30
0.0
 10
74.499477
 20
113.227603
 30
0.0
 10
74.950982
 20
111.394735
 30
0.0
 10
75.031455
 20
109.943629
 30
0.0
 10
74.787766
 20
109.071169
 30
0.0
 10
74.757659
 20
108.405659
 30
0.0
 10
74.764594
 20
107.643079
 30
0.0
 10
74.759328
 20
106.924095
 30
0.0
 10
74.712142
 20
106.348669
 30
0.0
 10
74.475356
 20
105.916320
 30
0.0
 10
74.007935
 20
105.478975
 30
0.0
 10
73.486319
 20
104.655320
 30
0.0
 10
72.589055
 20
103.339149
 30
0.0
 10
71.775643
 20
102.013151
 30
0.0
 10
70.846517
 20
100.774265
 30
0.0
 10
70.008169
 20
100.593106
 30
0.0
 10
68.963405
 20
100.320272
 30
0.0
 10
69.725260
 20
99.272275
 30
0.0
 10
70.664646
 20
99.039895
 30
0.0
 10
71.688387
 20
98.604902
 30
0.0
 10
72.440645
 20
98.282253
 30
0.0
 10
73.426808
 20
97.815436
 30
0.0
 10
74.601183
 20
96.921231
 30
0.0
 10
75.991817
 20
95.722995
 30
0.0
 10
77.265930
 20
94.150099
 30
0.0
 10
78.727947
 20
92.482711
 30
0.0
 10
80.648425
 20
91.087807
 30
0.0
 10
82.375337
 20
90.176280
 30
0.0
 10
83.816891
 20
89.853784
 30
0.0
 10
84.915842
 20
89.614517
 30
0.0
 10
86.038452
 20
89.430799
 30
0.0
 10
87.087634
 20
89.264599
 30
0.0
 10
87.990982
 20
89.094994
 30
0.0
 10
88.738634
 20
88.896503
 30
0.0
 10
89.420214
 20
88.737563
 30
0.0
 10
90.129630
 20
88.656852
 30
0.0
 10
91.664191
 20
88.589364
 30
0.0
 10
94.191903
 20
88.879201
 30
0.0
 10
97.308528
 20
89.269792
 30
0.0
 10
99.651852
 20
89.688084
 30
0.0
 10
100.907683
 20
90.089354
 30
0.0
 10
101.504262
 20
90.184688
 30
0.0
 10
101.908260
 20
90.194119
 30
0.0
 10
102.267668
 20
90.048336
 30
0.0
 10
102.358901
 20
90.502297
 30
0.0
 10
102.236206
 20
90.959359
 30
0.0
 10
102.197147
 20
91.724578
 30
0.0
 10
102.805163
 20
92.687594
 30
0.0
 10
103.690640
 20
93.420249
 30
0.0
 10
104.701421
 20
95.448424
 30
0.0
 10
105.557930
 20
94.084084
 30
0.0
 10
104.205022
 20
93.241905
 30
0.0
 10
103.600863
 20
92.217878
 30
0.0
 10
103.209571
 20
91.605890
 30
0.0
 10
102.846061
 20
90.885520
 30
0.0
 10
103.587301
 20
90.093054
 30
0.0
 10
104.365923
 20
89.448927
 30
0.0
 10
105.323828
 20
89.597338
 30
0.0
 10
105.842838
 20
90.359773
 30
0.0
 10
106.811476
 20
91.137345
 30
0.0
 10
108.323012
 20
92.557039
 30
0.0
 10
110.690103
 20
94.697168
 30
0.0
 10
113.862935
 20
97.709984
 30
0.0
 10
117.484562
 20
101.034490
 30
0.0
 10
120.725319
 20
104.434323
 30
0.0
 10
123.272290
 20
106.055478
 30
0.0
 10
124.333752
 20
107.911068
 30
0.0
 10
124.897320
 20
107.794985
 30
0.0
 10
124.992465
 20
107.698022
 30
0.0
 10
125.192536
 20
106.570356
 30
0.0
 10
120.597341
 20
104.413738
 30
0.0
 10
116.478320
 20
98.317386
 30
0.0
 10
110.267939
 20
92.850533
 30
0.0
 10
106.342202
 20
89.393183
 30
0.0
 10
105.624137
 20
87.745377
 30
0.0
 10
106.317529
 20
87.205842
 30
0.0
 10
106.671483
 20
86.930428
 30
0.0
 11
23.403272
 21
78.959685
 31
0.0
 11
23.997497
 21
80.951328
 31
0.0
 11
24.765123
 21
83.897051
 31
0.0
 11
25.370581
 21
86.509129
 31
0.0
 11
25.547679
 21
87.325538
 31
0.0
 11
25.789913
 21
88.380695
 31
0.0
 11
26.044841
 21
89.446165
 31
0.0
 11
26.307280
 21
90.684806
 31
0.0
 11
26.317179
 21
91.481038
 31
0.0
 11
26.079479
 21
92.232297
 31
0.0
 11
25.723529
 21
93.296120
 31
0.0
 11
25.834124
 21
93.922582
 31
0.0
 11
26.458805
 21
94.380990
 31
0.0
 11
27.334905
 21
94.906293
 31
0.0
 11
29.177161
 21
96.221232
 31
0.0
 11
33.095494
 21
99.118028
 31
0.0
 11
34.741762
 21
100.271135
 31
0.0
 11
36.668190
 21
101.521325
 31
0.0
 11
38.457717
 21
102.597935
 31
0.0
 11
40.148133
 21
103.593247
 31
0.0
 11
41.814730
 21
104.630305
 31
0.0
 11
43.096699
 21
105.484589
 31
0.0
 11
44.431954
 21
106.363000
 31
0.0
 11
45.574556
 21
106.709344
 31
0.0
 11
47.471144
 21
106.810564
 31
0.0
 11
51.612303
 21
106.998220
 31
0.0
 11
54.949756
 21
107.274094
 31
0.0
 11
56.751395
 21
107.577670
 31
0.0
 11
57.226751
 21
107.848817
 31
0.0
 11
57.490438
 21
108.310851
 31
0.0
 11
57.636368
 21
109.128326
 31
0.0
 11
58.057009
 21
110.459349
 31
0.0
 11
58.904271
 21
111.607167
 31
0.0
 11
60.011812
 21
112.346432
 31
0.0
 11
60.406415
 21
112.649212
 31
0.0
 11
60.837937
 21
113.215670
 31
0.0
 11
61.226390
 21
113.940804
 31
0.0
 11
62.743116
 21
116.302963
 31
0.0
 11
64.873817
 21
117.588391
 31
0.0
 11
67.916555
 21
117.976907
 31
0.0
 11
69.655702
 21
117.930949
 31
0.0
 11
70.692261
 21
117.685256
 31
0.0
 11
71.708546
 21
117.078102
 31
0.0
 11
72.465996
 21
116.480392
 31
0.0
 11
73.185636
 21
115.777407
 31
0.0
 11
73.711669
 21
115.121340
 31
0.0
 11
74.441221
 21
113.343001
 31
0.0
 11
74.928268
 21
111.129014
 31
0.0
 11
74.924720
 21
109.607130
 31
0.0
 11
74.823423
 21
109.145952
 31
0.0
 11
74.765127
 21
108.436989
 31
0.0
 11
74.762450
 21
107.633728
 31
0.0
 11
74.747781
 21
106.860807
 31
0.0
 11
74.653671
 21
106.276366
 31
0.0
 11
74.496693
 21
105.983326
 31
0.0
 11
74.146358
 21
105.588042
 31
0.0
 11
73.534655
 21
104.741333
 31
0.0
 11
72.794018
 21
103.626508
 31
0.0
 11
71.486191
 21
101.644846
 31
0.0
 11
70.730747
 21
100.834739
 31
0.0
 11
69.944564
 21
100.570871
 31
0.0
 11
69.213037
 21
100.189858
 31
0.0
 11
69.524223
 21
99.618197
 31
0.0
 11
70.826404
 21
98.950890
 31
0.0
 11
71.704952
 21
98.597266
 31
0.0
 11
72.516079
 21
98.242967
 31
0.0
 11
73.084182
 21
97.964698
 31
0.0
 11
74.517175
 21
96.964638
 31
0.0
 11
76.019661
 21
95.613609
 31
0.0
 11
77.149277
 21
94.309384
 31
0.0
 11
78.724442
 21
92.609714
 31
0.0
 11
80.795001
 21
91.064253
 31
0.0
 11
82.763360
 21
90.119045
 31
0.0
 11
83.754485
 21
89.868657
 31
0.0
 11
84.941135
 21
89.620122
 31
0.0
 11
86.066404
 21
89.427248
 31
0.0
 11
87.109191
 21
89.255933
 31
0.0
 11
88.079604
 21
89.063923
 31
0.0
 11
88.767553
 21
88.892786
 31
0.0
 11
89.375406
 21
88.759068
 31
0.0
 11
90.135839
 21
88.665156
 31
0.0
 11
90.884220
 21
88.631384
 31
0.0
 11
93.965226
 21
88.858110
 31
0.0
 11
97.690316
 21
89.356616
 31
0.0
 11
100.238882
 21
89.883262
 31
0.0
 11
100.950761
 21
90.081604
 31
0.0
 11
101.572877
 21
90.179177
 31
0.0
 11
101.970544
 21
90.154859
 31
0.0
 11
102.231197
 21
90.124045
 31
0.0
 11
102.319228
 21
90.356548
 31
0.0
 11
102.263725
 21
90.929189
 31
0.0
 11
102.268479
 21
91.655535
 31
0.0
 11
102.674773
 21
92.432317
 31
0.0
 11
103.688532
 21
93.653235
 31
0.0
 11
105.004636
 21
94.912813
 31
0.0
 11
105.189708
 21
94.624418
 31
0.0
 11
104.128626
 21
92.967440
 31
0.0
 11
103.560001
 21
92.161371
 31
0.0
 11
103.154437
 21
91.485442
 31
0.0
 11
102.999738
 21
91.085989
 31
0.0
 11
103.532715
 21
90.181776
 31
0.0
 11
104.577874
 21
89.552941
 31
0.0
 11
105.304553
 21
89.699265
 31
0.0
 11
105.710255
 21
90.133406
 31
0.0
 11
106.683423
 21
91.053543
 31
0.0
 11
108.013370
 21
92.260471
 31
0.0
 11
110.282731
 21
94.342272
 31
0.0
 11
113.718682
 21
97.555997
 31
0.0
 11
117.577359
 21
101.205891
 31
0.0
 11
121.111051
 21
104.535884
 31
0.0
 11
123.695016
 21
106.910953
 31
0.0
 11
124.769838
 21
107.816907
 31
0.0
 11
124.892355
 21
107.782974
 31
0.0
 11
124.979739
 21
107.694014
 31
0.0
 11
125.013071
 21
107.569288
 31
0.0
 11
122.883593
 21
105.344223
 31
0.0
 11
116.912757
 21
99.487203
 31
0.0
 11
107.726960
 21
90.612685
 31
0.0
 11
106.202112
 21
88.939057
 31
0.0
 11
105.885540
 21
87.834626
 31
0.0
 11
106.671483
 21
86.930428
 31
0.0
  0
LWPOLYLINE
  5
105
100
AcDbEntity
  8
0
 62
7
100
AcDbPolyline
 90
3
 70
0
 10
106.671483
 20
86.930428
 30
0.0
 10
107.521008
 20
86.325512
 30
0.0
 10
108.576483
 20
86.963275
 30
0.0
  0
SPLINE
  5
106
100
AcDbEntity
  8
0
 62
7
100
AcDbSpline
 70
0
 71
3
 72
145
 73
141
 74
139
 40
0.000000
 40
0.000000
 40
0.000000
 40
0.000000
 40
0.736526
 40
1.482426
 40
2.076806
 40
2.547953
 40
2.975943
 40
3.279130
 40
3.925792
 40
5.687508
 40
7.414391
 40
8.066053
 40
8.490209
 40
9.038451
 40
9.553935
 40
9.840984
 40
10.198333
 40
10.504520
 40
10.803638
 40
11.048798
 40
11.366069
 40
11.905613
 40
12.575596
 40
14.139665
 40
15.341428
 40
16.538647
 40
17.193700
 40
17.629474
 40
18.008871
 40
18.260674
 40
18.419067
 40
18.520267
 40
18.576336
 40
18.758987
 40
19.090921
 40
19.530535
 40
19.756106
 40
20.086070
 40
20.665634
 40
21.123673
 40
21.454253
 40
21.765111
 40
22.117897
 40
22.681222
 40
23.451202
 40
25.162973
 40
28.212450
 40
30.765854
 40
32.640153
 40
33.430035
 40
33.755873
 40
34.422940
 40
35.289595
 40
36.243299
 40
37.140034
 40
37.789504
 40
38.377093
 40
38.764365
 40
39.418464
 40
39.967761
 40
40.191202
 40
40.381516
 40
40.758094
 40
41.413734
 40
42.220844
 40
43.082012
 40
43.885289
 40
44.475975
 40
44.965281
 40
45.486157
 40
45.943311
 40
46.574330
 40
47.533040
 40
48.611889
 40
49.665146
 40
50.349264
 40
50.669390
 40
51.011068
 40
51.688808
 40
52.619436
 40
54.516993
 40
56.550086
 40
59.341063
 40
64.732101
 40
71.289366
 40
75.921353
 40
78.244826
 40
79.697462
 40
80.792162
 40
83.427693
 40
86.756762
 40
89.576220
 40
92.480998
 40
94.278277
 40
94.507133
 40
94.949055
 40
95.042456
 40
95.363024
 40
95.746730
 40
96.206611
 40
96.643120
 40
97.120282
 40
97.690807
 40
98.234677
 40
98.795410
 40
99.176431
 40
99.626206
 40
100.038955
 40
100.447595
 40
100.763691
 40
101.736017
 40
103.265564
 40
104.331627
 40
104.626863
 40
105.124963
 40
105.723807
 40
106.272214
 40
106.639925
 40
106.772412
 40
106.853439
 40
107.049337
 40
107.363967
 40
108.759342
 40
110.394239
 40
112.140206
 40
113.295069
 40
114.159532
 40
115.041111
 40
115.699122
 40
116.236972
 40
116.544555
 40
116.889925
 40
117.522034
 40
118.308199
 40
120.590967
 40
122.943468
 40
125.737164
 40
127.729712
 40
129.787795
 40
132.939356
 40
132.939356
 40
132.939356
 40
132.939356
 10
108.576483
 20
86.963275
 30
0.0
 10
108.784852
 20
87.092822
 30
0.0
 10
109.204243
 20
87.353564
 30
0.0
 10
109.784835
 20
87.734855
 30
0.0
 10
110.265775
 20
88.090384
 30
0.0
 10
110.691708
 20
88.378324
 30
0.0
 10
111.011103
 20
88.536392
 30
0.0
 10
111.604363
 20
88.732833
 30
0.0
 10
110.643731
 20
87.492440
 30
0.0
 10
109.837325
 20
86.982724
 30
0.0
 10
108.635669
 20
86.081817
 30
0.0
 10
107.811079
 20
85.638315
 30
0.0
 10
107.242633
 20
85.618137
 30
0.0
 10
106.817544
 20
85.908371
 30
0.0
 10
106.459973
 20
86.177134
 30
0.0
 10
106.032232
 20
86.220088
 30
0.0
 10
105.829534
 20
85.933775
 30
0.0
 10
105.597552
 20
85.723219
 30
0.0
 10
105.352604
 20
85.562432
 30
0.0
 10
105.061234
 20
85.534273
 30
0.0
 10
104.736521
 20
85.340759
 30
0.0
 10
104.409930
 20
84.943670
 30
0.0
 10
103.914127
 20
84.166133
 30
0.0
 10
103.295635
 20
83.187873
 30
0.0
 10
102.085719
 20
82.470916
 30
0.0
 10
101.026020
 20
82.633099
 30
0.0
 10
100.314328
 20
82.881676
 30
0.0
 10
99.805302
 20
82.915527
 30
0.0
 10
99.485137
 20
82.712950
 30
0.0
 10
99.297329
 20
82.567723
 30
0.0
 10
99.095432
 20
82.476558
 30
0.0
 10
99.047276
 20
82.585390
 30
0.0
 10
98.945023
 20
82.666476
 30
0.0
 10
98.860470
 20
82.384054
 30
0.0
 10
98.720848
 20
82.168513
 30
0.0
 10
98.638402
 20
81.805058
 30
0.0
 10
98.301934
 20
81.627657
 30
0.0
 10
97.974533
 20
81.922867
 30
0.0
 10
97.711459
 20
82.242740
 30
0.0
 10
97.564744
 20
82.779460
 30
0.0
 10
97.896320
 20
82.994226
 30
0.0
 10
98.298101
 20
83.090820
 30
0.0
 10
98.048236
 20
83.575865
 30
0.0
 10
97.619315
 20
83.910195
 30
0.0
 10
96.539811
 20
83.914701
 30
0.0
 10
94.764509
 20
83.544585
 30
0.0
 10
92.384492
 20
82.986365
 30
0.0
 10
89.919657
 20
82.463594
 30
0.0
 10
88.334955
 20
81.898615
 30
0.0
 10
87.224156
 20
81.850328
 30
0.0
 10
86.895071
 20
81.325493
 30
0.0
 10
86.581110
 20
80.802489
 30
0.0
 10
86.197089
 20
80.062215
 30
0.0
 10
85.759817
 20
79.272366
 30
0.0
 10
85.319602
 20
78.557336
 30
0.0
 10
84.887485
 20
78.006901
 30
0.0
 10
84.531620
 20
77.555550
 30
0.0
 10
83.954064
 20
77.486167
 30
0.0
 10
83.469712
 20
77.799567
 30
0.0
 10
83.113807
 20
77.983247
 30
0.0
 10
82.691858
 20
78.110628
 30
0.0
 10
82.730616
 20
77.753734
 30
0.0
 10
83.053930
 20
77.515524
 30
0.0
 10
83.538575
 20
77.132399
 30
0.0
 10
84.224976
 20
76.770600
 30
0.0
 10
84.929851
 20
76.344332
 30
0.0
 10
85.525987
 20
75.877097
 30
0.0
 10
85.921106
 20
75.384895
 30
0.0
 10
86.197820
 20
74.926699
 30
0.0
 10
86.553081
 20
74.582287
 30
0.0
 10
87.004493
 20
74.288044
 30
0.0
 10
87.639601
 20
74.032429
 30
0.0
 10
88.440384
 20
73.649901
 30
0.0
 10
89.394979
 20
73.242477
 30
0.0
 10
90.204522
 20
72.811824
 30
0.0
 10
90.862674
 20
72.488608
 30
0.0
 10
91.033405
 20
72.061224
 30
0.0
 10
91.159939
 20
71.627407
 30
0.0
 10
91.694139
 20
71.202130
 30
0.0
 10
92.601502
 20
70.492910
 30
0.0
 10
93.959155
 20
69.589101
 30
0.0
 10
95.758724
 20
68.259709
 30
0.0
 10
98.425826
 20
66.137111
 30
0.0
 10
102.739679
 20
63.713035
 30
0.0
 10
107.654994
 20
61.347755
 30
0.0
 10
112.077570
 20
59.772800
 30
0.0
 10
114.565821
 20
59.333994
 30
0.0
 10
116.411790
 20
58.002747
 30
0.0
 10
114.598811
 20
56.681654
 30
0.0
 10
112.320627
 20
56.982487
 30
0.0
 10
109.380696
 20
56.577635
 30
0.0
 10
106.325534
 20
56.856981
 30
0.0
 10
103.961037
 20
56.561516
 30
0.0
 10
102.067535
 20
57.549016
 30
0.0
 10
101.468718
 20
56.613510
 30
0.0
 10
101.950904
 20
56.719322
 30
0.0
 10
102.100624
 20
56.409556
 30
0.0
 10
101.649937
 20
56.471572
 30
0.0
 10
101.344253
 20
56.385826
 30
0.0
 10
100.894312
 20
56.347589
 30
0.0
 10
100.448671
 20
56.275059
 30
0.0
 10
99.952022
 20
56.246797
 30
0.0
 10
99.421085
 20
56.261811
 30
0.0
 10
98.867837
 20
56.322672
 30
0.0
 10
98.370694
 20
56.400912
 30
0.0
 10
97.986138
 20
56.719842
 30
0.0
 10
97.946520
 20
57.156374
 30
0.0
 10
97.926597
 20
57.574474
 30
0.0
 10
97.888115
 20
57.950046
 30
0.0
 10
97.891165
 20
58.532876
 30
0.0
 10
97.054474
 20
59.178952
 30
0.0
 10
96.182667
 20
59.908061
 30
0.0
 10
95.298367
 20
60.350576
 30
0.0
 10
94.692944
 20
60.490442
 30
0.0
 10
94.278650
 20
60.707871
 30
0.0
 10
93.805511
 20
60.986605
 30
0.0
 10
93.366295
 20
61.223314
 30
0.0
 10
93.054543
 20
61.409227
 30
0.0
 10
92.850320
 20
61.391646
 30
0.0
 10
92.743813
 20
61.282342
 30
0.0
 10
92.549001
 20
61.450502
 30
0.0
 10
92.086661
 20
61.798432
 30
0.0
 10
91.102885
 20
62.443145
 30
0.0
 10
89.565936
 20
62.865210
 30
0.0
 10
88.050856
 20
62.991935
 30
0.0
 10
86.795205
 20
62.974123
 30
0.0
 10
85.836073
 20
63.189573
 30
0.0
 10
85.150617
 20
63.619481
 30
0.0
 10
84.570289
 20
63.992272
 30
0.0
 10
84.133188
 20
64.245321
 30
0.0
 10
83.752039
 20
64.360062
 30
0.0
 10
83.337145
 20
64.468484
 30
0.0
 10
82.805217
 20
64.726707
 30
0.0
 10
81.717043
 20
65.301126
 30
0.0
 10
80.026532
 20
66.007367
 30
0.0
 10
77.507412
 20
66.123959
 30
0.0
 10
75.174308
 20
65.620687
 30
0.0
 10
72.963247
 20
65.041309
 30
0.0
 10
70.557628
 20
64.882566
 30
0.0
 10
68.822004
 20
64.899926
 30
0.0
 10
67.772043
 20
64.910428
 30
0.0
 11
108.576483
 21
86.963275
 31
0.0
 11
109.200365
 21
87.354735
 31
0.0
 11
109.821358
 21
87.767935
 31
0.0
 11
110.305020
 21
88.113418
 31
0.0
 11
110.699192
 21
88.371505
 31
0.0
 11
111.085574
 21
88.555581
 31
0.0
 11
111.380518
 21
88.625796
 31
0.0
 11
111.066418
 21
88.060542
 31
0.0
 11
109.745811
 21
86.894504
 31
0.0
 11
108.318616
 21
85.922271
 31
0.0
 11
107.722117
 21
85.659873
 31
0.0
 11
107.297964
 21
85.658067
 31
0.0
 11
106.814115
 21
85.915864
 31
0.0
 11
106.365046
 21
86.168967
 31
0.0
 11
106.078046
 21
86.174236
 31
0.0
 11
105.813284
 21
85.934237
 31
0.0
 11
105.588564
 21
85.726267
 31
0.0
 11
105.328815
 21
85.577937
 31
0.0
 11
105.090273
 21
85.521357
 31
0.0
 11
104.811504
 21
85.369867
 31
0.0
 11
104.446291
 21
84.972720
 31
0.0
 11
104.073700
 21
84.415895
 31
0.0
 11
103.119603
 21
83.176536
 31
0.0
 11
102.059237
 21
82.610976
 31
0.0
 11
100.865706
 21
82.704867
 31
0.0
 11
100.232285
 21
82.871820
 31
0.0
 11
99.796535
 21
82.867232
 31
0.0
 11
99.461038
 21
82.690078
 31
0.0
 11
99.250853
 21
82.551417
 31
0.0
 11
99.096264
 21
82.516912
 31
0.0
 11
99.030736
 21
82.594032
 31
0.0
 11
98.985111
 21
82.626622
 31
0.0
 11
98.882709
 21
82.475376
 31
0.0
 11
98.745692
 21
82.173041
 31
0.0
 11
98.546494
 21
81.781148
 31
0.0
 11
98.341780
 21
81.686415
 31
0.0
 11
98.058026
 21
81.854819
 31
0.0
 11
97.715642
 21
82.322438
 31
0.0
 11
97.659834
 21
82.777065
 31
0.0
 11
97.919738
 21
82.981351
 31
0.0
 11
98.192662
 21
83.130162
 31
0.0
 11
98.084217
 21
83.465867
 31
0.0
 11
97.648056
 21
83.822376
 31
0.0
 11
96.881697
 21
83.896969
 31
0.0
 11
95.191141
 21
83.628311
 31
0.0
 11
92.215993
 21
82.959129
 31
0.0
 11
89.733966
 21
82.359617
 31
0.0
 11
87.916219
 21
81.902679
 31
0.0
 11
87.156284
 21
81.687241
 31
0.0
 11
86.959743
 21
81.427353
 31
0.0
 11
86.619001
 21
80.853879
 31
0.0
 11
86.207826
 21
80.090972
 31
0.0
 11
85.743198
 21
79.258103
 31
0.0
 11
85.262321
 21
78.501207
 31
0.0
 11
84.869302
 21
77.984150
 31
0.0
 11
84.439755
 21
77.583214
 31
0.0
 11
84.055878
 21
77.532042
 31
0.0
 11
83.457375
 21
77.795936
 31
0.0
 11
82.958845
 21
78.026576
 31
0.0
 11
82.736129
 21
78.044560
 31
0.0
 11
82.735245
 21
77.854248
 31
0.0
 11
82.979995
 21
77.568052
 31
0.0
 11
83.508031
 21
77.179411
 31
0.0
 11
84.205039
 21
76.772462
 31
0.0
 11
84.937072
 21
76.318879
 31
0.0
 11
85.556938
 21
75.807977
 31
0.0
 11
85.930438
 21
75.350367
 31
0.0
 11
86.208778
 21
74.947941
 31
0.0
 11
86.579171
 21
74.581714
 31
0.0
 11
86.961427
 21
74.330975
 31
0.0
 11
87.535369
 21
74.068726
 31
0.0
 11
88.408289
 21
73.672322
 31
0.0
 11
89.391205
 21
73.227585
 31
0.0
 11
90.331336
 21
72.752711
 31
0.0
 11
90.889149
 21
72.356652
 31
0.0
 11
91.025655
 21
72.067090
 31
0.0
 11
91.148749
 21
71.748355
 31
0.0
 11
91.620540
 21
71.261792
 31
0.0
 11
92.357521
 21
70.693526
 31
0.0
 11
93.910721
 21
69.603437
 31
0.0
 11
95.550133
 21
68.401024
 31
0.0
 11
97.777035
 21
66.718626
 31
0.0
 11
102.407540
 21
63.957882
 31
0.0
 11
108.344243
 21
61.173409
 31
0.0
 11
112.736404
 21
59.702279
 31
0.0
 11
114.942266
 21
58.972418
 31
0.0
 11
115.943732
 21
57.920173
 31
0.0
 11
115.146497
 21
57.169984
 31
0.0
 11
112.530508
 21
56.849632
 31
0.0
 11
109.205134
 21
56.692840
 31
0.0
 11
106.386404
 21
56.756946
 31
0.0
 11
103.487908
 21
56.947877
 31
0.0
 11
101.690648
 21
56.939537
 31
0.0
 11
101.588626
 21
56.734679
 31
0.0
 11
102.004438
 21
56.585030
 31
0.0
 11
102.045293
 21
56.501038
 31
0.0
 11
101.729738
 21
56.444571
 31
0.0
 11
101.348738
 21
56.399078
 31
0.0
 11
100.892478
 21
56.341480
 31
0.0
 11
100.459738
 21
56.284247
 31
0.0
 11
99.983488
 21
56.254763
 31
0.0
 11
99.413163
 21
56.269920
 31
0.0
 11
98.872238
 21
56.326433
 31
0.0
 11
98.330014
 21
56.469314
 31
0.0
 11
98.047863
 21
56.725376
 31
0.0
 11
97.949137
 21
57.164182
 31
0.0
 11
97.922766
 21
57.576088
 31
0.0
 11
97.893193
 21
57.983657
 31
0.0
 11
97.866821
 21
58.298650
 31
0.0
 11
97.239785
 21
59.041781
 31
0.0
 11
96.013938
 21
59.956558
 31
0.0
 11
95.046123
 21
60.403573
 31
0.0
 11
94.762074
 21
60.484077
 31
0.0
 11
94.310898
 21
60.695129
 31
0.0
 11
93.790270
 21
60.991036
 31
0.0
 11
93.311484
 21
61.258457
 31
0.0
 11
92.969996
 21
61.394829
 31
0.0
 11
92.839738
 21
61.370628
 31
0.0
 11
92.772056
 21
61.326079
 31
0.0
 11
92.594622
 21
61.409105
 31
0.0
 11
92.345849
 21
61.601728
 31
0.0
 11
91.155547
 21
62.329912
 31
0.0
 11
89.591999
 21
62.807621
 31
0.0
 11
87.853988
 21
62.974118
 31
0.0
 11
86.700244
 21
63.024927
 31
0.0
 11
85.861208
 21
63.233052
 31
0.0
 11
85.089788
 21
63.659774
 31
0.0
 11
84.532600
 21
64.009803
 31
0.0
 11
84.056201
 21
64.259456
 31
0.0
 11
83.763731
 21
64.354685
 31
0.0
 11
83.432314
 21
64.451863
 31
0.0
 11
82.853820
 21
64.706627
 31
0.0
 11
82.153486
 21
65.063824
 31
0.0
 11
80.017614
 21
65.869477
 31
0.0
 11
77.670216
 21
66.024342
 31
0.0
 11
74.918626
 21
65.541130
 31
0.0
 11
72.973674
 21
65.108224
 31
0.0
 11
70.923559
 21
64.927297
 31
0.0
 11
67.772043
 21
64.910428
 31
0.0
  0
LWPOLYLINE
  5
107
100
AcDbEntity
  8
0
 62
7
100
AcDbPolyline
 90
3
 70
0
 10
67.772043
 20
64.910428
 30
0.0
 10
63.165462
 20
64.951370
 30
0.0
 10
63.256487
 20
64.321789
 30
0.0
  0
SPLINE
  5
108
100
AcDbEntity
  8
0
 62
7
100
AcDbSpline
 70
0
 71
3
 72
19
 73
15
 74
13
 40
0.000000
 40
0.000000
 40
0.000000
 40
0.000000
 40
0.443658
 40
1.069801
 40
2.503670
 40
3.971209
 40
5.756007
 40
7.473143
 40
9.052418
 40
10.474628
 40
11.431871
 40
12.367937
 40
13.739520
 40
15.252068
 40
15.252068
 40
15.252068
 40
15.252068
 10
63.256487
 20
64.321789
 30
0.0
 10
63.262080
 20
64.158576
 30
0.0
 10
63.275564
 20
63.765019
 30
0.0
 10
62.310454
 20
63.518740
 30
0.0
 10
61.245693
 20
63.321327
 30
0.0
 10
59.665822
 20
63.099941
 30
0.0
 10
58.029077
 20
62.924043
 30
0.0
 10
56.337622
 20
62.790056
 30
0.0
 10
54.768076
 20
62.697238
 30
0.0
 10
53.450647
 20
62.623021
 30
0.0
 10
52.348493
 20
62.531320
 30
0.0
 10
51.259091
 20
62.550391
 30
0.0
 10
49.988430
 20
62.637092
 30
0.0
 10
49.032287
 20
62.738044
 30
0.0
 10
48.530849
 20
62.790987
 30
0.0
 11
63.256487
 21
64.321789
 31
0.0
 11
63.200021
 21
63.881739
 31
0.0
 11
62.637732
 21
63.606264
 31
0.0
 11
61.230849
 21
63.329391
 31
0.0
 11
59.777927
 21
63.122773
 31
0.0
 11
58.003585
 21
62.929859
 31
0.0
 11
56.291960
 21
62.792412
 31
0.0
 11
54.715696
 21
62.694915
 31
0.0
 11
53.296223
 21
62.606730
 31
0.0
 11
52.340849
 21
62.546947
 31
0.0
 11
51.404812
 21
62.554246
 31
0.0
 11
50.036034
 21
62.641920
 31
0.0
 11
48.530849
 21
62.790987
 31
0.0
  0
LWPOLYLINE
  5
109
100
AcDbEntity
  8
0
 62
7
100
AcDbPolyline
 90
3
 70
0
 10
48.530849
 20
62.790987
 30
0.0
 10
45.849738
 20
63.106331
 30
0.0
 10
45.922771
 20
60.978841
 30
0.0
  0
SPLINE
  5
10a
100
AcDbEntity
  8
0
 62
7
100
AcDbSpline
 70
0
 71
3
 72
28
 73
24
 74
22
 40
0.000000
 40
0.000000
 40
0.000000
 40
0.000000
 40
1.198902
 40
2.296434
 40
3.056344
 40
3.630924
 40
4.164299
 40
4.660051
 40
5.146592
 40
5.700194
 40
6.205554
 40
6.700688
 40
7.232057
 40
7.694670
 40
8.167713
 40
8.716741
 40
9.223686
 40
9.790416
 40
10.378108
 40
11.213094
 40
11.870083
 40
12.344211
 40
12.560816
 40
12.560816
 40
12.560816
 40
12.560816
 10
45.922771
 20
60.978841
 30
0.0
 10
45.941179
 20
60.579692
 30
0.0
 10
45.976439
 20
59.815142
 30
0.0
 10
46.047593
 20
58.797879
 30
0.0
 10
46.160776
 20
57.995586
 30
0.0
 10
46.235393
 20
57.375734
 30
0.0
 10
46.159647
 20
56.836464
 30
0.0
 10
45.932757
 20
56.380658
 30
0.0
 10
45.672838
 20
55.940185
 30
0.0
 10
45.472031
 20
55.463235
 30
0.0
 10
45.326334
 20
54.966235
 30
0.0
 10
45.167015
 20
54.480254
 30
0.0
 10
44.937918
 20
54.036759
 30
0.0
 10
44.646996
 20
53.641980
 30
0.0
 10
44.313941
 20
53.275946
 30
0.0
 10
43.998750
 20
52.873547
 30
0.0
 10
43.692148
 20
52.432118
 30
0.0
 10
43.331866
 20
51.991369
 30
0.0
 10
42.684493
 20
51.766720
 30
0.0
 10
41.989103
 20
51.710969
 30
0.0
 10
41.345522
 20
51.731734
 30
0.0
 10
40.869946
 20
51.734699
 30
0.0
 10
40.686235
 20
51.879774
 30
0.0
 10
40.628626
 20
51.925268
 30
0.0
 11
45.922771
 21
60.978841
 31
0.0
 11
45.982957
 21
59.781451
 31
0.0
 11
46.070536
 21
58.687419
 31
0.0
 11
46.166549
 21
57.933598
 31
0.0
 11
46.211062
 21
57.360745
 31
0.0
 11
46.129545
 21
56.833636
 31
0.0
 11
45.926491
 21
56.381376
 31
0.0
 11
45.693131
 21
55.954451
 31
0.0
 11
45.476234
 21
55.445108
 31
0.0
 11
45.322758
 21
54.963616
 31
0.0
 11
45.158880
 21
54.496388
 31
0.0
 11
44.914711
 21
54.024441
 31
0.0
 11
44.643113
 21
53.649948
 31
0.0
 11
44.334968
 21
53.291037
 31
0.0
 11
43.994983
 21
52.859943
 31
0.0
 11
43.696763
 21
52.449995
 31
0.0
 11
43.306211
 21
52.039323
 31
0.0
 11
42.762788
 21
51.815551
 31
0.0
 11
41.932874
 21
51.723660
 31
0.0
 11
41.275920
 21
51.730474
 31
0.0
 11
40.807357
 21
51.802904
 31
0.0
 11
40.628626
 21
51.925268
 31
0.0
  0
LWPOLYLINE
  5
10b
100
AcDbEntity
  8
0
 62
7
100
AcDbPolyline
 90
2
 70
0
 10
40.628626
 20
51.925268
 30
0.0
 10
40.628626
 20
51.925268
 30
0.0
  0
SPLINE
  5
10c
100
AcDbEntity
  8
0
 62
7
100
AcDbSpline
 70
0
 71
3
 72
13
 73
9
 74
7
 40
0.000000
 40
0.000000
 40
0.000000
 40
0.000000
 40
2.099632
 40
3.443222
 40
4.275552
 40
4.946111
 40
6.533470
 40
9.633856
 40
9.633856
 40
9.633856
 40
9.633856
 10
65.605189
 20
79.458473
 30
0.0
 10
66.285147
 20
79.582150
 30
0.0
 10
67.400221
 20
79.784970
 30
0.0
 10
68.885267
 20
79.972654
 30
0.0
 10
69.722540
 20
79.480717
 30
0.0
 10
70.683405
 20
79.089204
 30
0.0
 10
72.512130
 20
79.208587
 30
0.0
 10
74.063586
 20
79.227265
 30
0.0
 10
75.089690
 20
79.239618
 30
0.0
 11
65.605189
 21
79.458473
 31
0.0
 11
67.675135
 21
79.810290
 31
0.0
 11
69.018716
 21
79.815297
 31
0.0
 11
69.777864
 21
79.474023
 31
0.0
 11
70.404385
 21
79.235023
 31
0.0
 11
71.990200
 21
79.165043
 31
0.0
 11
75.089690
 21
79.239618
 31
0.0
  0
LWPOLYLINE
  5
10d
100
AcDbEntity
  8
0
 62
7
100
AcDbPolyline
 90
3
 70
0
 10
75.089690
 20
79.239618
 30
0.0
 10
79.998626
 20
79.408105
 30
0.0
 10
78.479596
 20
80.076715
 30
0.0
  0
SPLINE
  5
10e
100
AcDbEntity
  8
0
 62
7
100
AcDbSpline
 70
0
 71
3
 72
22
 73
18
 74
16
 40
0.000000
 40
0.000000
 40
0.000000
 40
0.000000
 40
3.746391
 40
7.577171
 40
10.139361
 40
12.435980
 40
14.133393
 40
15.221207
 40
15.762617
 40
16.448082
 40
17.138334
 40
17.855742
 40
18.209240
 40
18.512492
 40
19.455032
 40
20.519862
 40
22.455874
 40
22.455874
 40
22.455874
 40
22.455874
 10
78.479596
 20
80.076715
 30
0.0
 10
77.318199
 20
80.539116
 30
0.0
 10
74.969243
 20
81.474334
 30
0.0
 10
71.737423
 20
82.441277
 30
0.0
 10
68.897355
 20
83.138612
 30
0.0
 10
66.706664
 20
83.001145
 30
0.0
 10
65.002778
 20
82.786211
 30
0.0
 10
64.033657
 20
82.164972
 30
0.0
 10
63.577625
 20
81.536307
 30
0.0
 10
63.083844
 20
81.128137
 30
0.0
 10
62.509061
 20
80.712256
 30
0.0
 10
62.028093
 20
80.445206
 30
0.0
 10
61.651922
 20
80.046540
 30
0.0
 10
62.014593
 20
79.554455
 30
0.0
 10
62.633553
 20
79.096226
 30
0.0
 10
64.014039
 20
79.093738
 30
0.0
 10
64.981211
 20
79.315444
 30
0.0
 10
65.605189
 20
79.458479
 30
0.0
 11
78.479596
 21
80.076715
 31
0.0
 11
74.979223
 21
81.411941
 31
0.0
 11
71.314489
 21
82.527559
 31
0.0
 11
68.800689
 21
83.023168
 31
0.0
 11
66.504928
 21
82.960417
 31
0.0
 11
64.843869
 21
82.610998
 31
0.0
 11
63.942973
 21
82.001304
 31
0.0
 11
63.591540
 21
81.589454
 31
0.0
 11
63.079257
 21
81.134013
 31
0.0
 11
62.517028
 21
80.733578
 31
0.0
 11
61.928398
 21
80.323470
 31
0.0
 11
61.733401
 21
80.028620
 31
0.0
 11
61.872656
 21
79.759231
 31
0.0
 11
62.637173
 21
79.207965
 31
0.0
 11
63.698564
 21
79.122442
 31
0.0
 11
65.605189
 21
79.458479
 31
0.0
  0
LWPOLYLINE
  5
10f
100
AcDbEntity
  8
0
 62
7
100
AcDbPolyline
 90
2
 70
0
 10
65.605189
 20
79.458479
 30
0.0
 10
65.605189
 20
79.458473
 30
0.0
  0
SPLINE
  5
110
100
AcDbEntity
  8
0
 62
7
100
AcDbSpline
 70
0
 71
3
 72
16
 73
12
 74
10
 40
0.000000
 40
0.000000
 40
0.000000
 40
0.000000
 40
0.228967
 40
0.538223
 40
0.825579
 40
1.433578
 40
1.607679
 40
2.440160
 40
3.069975
 40
3.162437
 40
3.420179
 40
3.420179
 40
3.420179
 40
3.420179
 10
71.982609
 20
109.808007
 30
0.0
 10
71.942382
 20
109.872774
 30
0.0
 10
71.847822
 20
110.025018
 30
0.0
 10
71.630389
 20
110.213770
 30
0.0
 10
71.256257
 20
110.321681
 30
0.0
 10
70.821155
 20
110.436545
 30
0.0
 10
70.487773
 20
109.894296
 30
0.0
 10
71.494320
 20
109.873454
 30
0.0
 10
71.791864
 20
109.647417
 30
0.0
 10
72.186593
 20
109.550479
 30
0.0
 10
72.069089
 20
109.698827
 30
0.0
 10
71.982609
 20
109.808007
 30
0.0
 11
71.982609
 21
109.808007
 31
0.0
 11
71.853387
 21
109.997024
 31
0.0
 11
71.617053
 21
110.196487
 31
0.0
 11
71.346966
 21
110.294601
 31
0.0
 11
70.739328
 21
110.273644
 31
0.0
 11
70.648457
 21
110.125139
 31
0.0
 11
71.418165
 21
109.808007
 31
0.0
 11
72.010800
 21
109.594815
 31
0.0
 11
72.101999
 21
109.579583
 31
0.0
 11
71.982609
 21
109.808007
 31
0.0
  0
LWPOLYLINE
  5
111
100
AcDbEntity
  8
0
 62
7
100
AcDbPolyline
 90
2
 70
0
 10
71.982609
 20
109.808007
 30
0.0
 10
71.982609
 20
109.808007
 30
0.0
  0
ENDSEC
  0
SECTION
  2
OBJECTS
  0
DICTIONARY
  5
C
330
0
100
AcDbDictionary
  3
ACAD_GROUP
350
D
  3
ACAD_MLINESTYLE
350
17
  0
DICTIONARY
  5
D
330
C
100
AcDbDictionary
  0
DICTIONARY
  5
1A
330
C
100
AcDbDictionary
  0
DICTIONARY
  5
17
330
C
100
AcDbDictionary
  3
STANDARD
350
18
  0
DICTIONARY
  5
19
330
C
100
AcDbDictionary
  0
ENDSEC
  0
EOF
